# xmcd CD database file
#
# Track frame offsets:
#	150
#	20048
#	40712
#	78582
#	99532
#	120942
#	135212
#	157813
#	192347
#	210051
#	241283
#	268391
#
# Disc length: 3900 seconds
#
# Revision: 0
# Processed by: cddbd v1.5.2PL0 Copyright (c) Steve Scherf et al.
# Submitted via: Feurio! 1.68 - http://www.feurio.com
#
DISCID=900f3a0c
DTITLE=Buddy Guy - Damn right, I`ve got the blues
DYEAR=1900
DGENRE=
TTITLE0=Damn right, I´ve got the blues
TTITLE1=Where is the next one...
TTITLE2=Five long years
TTITLE3=Mustang Sally
TTITLE4=There is something in your mind
TTITLE5=Early in the morning
TTITLE6=Too broke to spend the night
TTITLE7=Black night
TTITLE8=Let me love you baby
TTITLE9=Rememberin` Stevie
TTITLE10=Doin` what I like best
TTITLE11=Trouble don`t last
EXTD=
EXTT0=
EXTT1=
EXTT2=
EXTT3=
EXTT4=
EXTT5=
EXTT6=
EXTT7=
EXTT8=
EXTT9=
EXTT10=
EXTT11=
PLAYORDER=
